<?xml version="1.0" ?><svg enable-background="new 0 0 512 512" id="Layer_1" version="1.1" viewBox="0 0 512 512" xml:space="preserve" xmlns="http://www.w3.org/2000/svg" xmlns:xlink="http://www.w3.org/1999/xlink"><g><g><path d="M466.8,297.6c-14.2-11.4-32.2-18.2-51.8-18.2h-57.2l-38.5-56l-5.3-80.6l71.1,35.8L466.8,297.6z" fill="#9B8579"/><g><path d="M472.1,292.3c-13.4-10.5-28.7-17.4-45.6-19.6c-7.5-1-14.9-0.8-22.4-0.8c-15.4,0-30.9,0-46.3,0c2.2,1.2,4.3,2.5,6.5,3.7     c-12.8-18.7-25.6-37.4-38.5-56c0.3,1.3,0.7,2.5,1,3.8c-1.8-26.9-3.6-53.7-5.3-80.6c-3.8,2.2-7.5,4.3-11.3,6.5     c13.5,6.8,26.9,13.6,40.4,20.3c8.2,4.1,16.4,8.3,24.6,12.4c1.3,0.7,4.2,2.9,5.7,2.9c1.2,0-2.2-2.2-2.3-2.4c0.1,0.3,0.5,0.6,0.7,1     c7,11.6,15.5,22.5,23.1,33.7c12,17.4,23.9,34.8,35.9,52.3c7.3,10.7,14.7,21.4,22,32.1c5.4,7.9,18.4,0.4,13-7.6     c-18-26.2-36-52.4-53.9-78.6c-8.7-12.7-17.4-25.4-26.1-38.1c-1.8-2.7-3.6-4.7-6.5-6.2c-6.9-3.5-13.8-7-20.8-10.4     c-16.1-8.1-32.1-16.2-48.2-24.2c-4.7-2.4-11.7,0.4-11.3,6.5c1,15.7,2.1,31.5,3.1,47.2c0.6,9.2,1.2,18.4,1.8,27.6     c0.3,4.3,0.3,8,2.9,11.7c10.8,15.7,21.6,31.5,32.4,47.2c3.3,4.8,5.8,10.2,12.3,10.4c8.6,0.2,17.3,0,25.9,0c9.7,0,19.4,0,29.2,0     c17.2,0,33.9,5.3,47.5,16c3.2,2.5,7.5,3.1,10.6,0C474.7,300.4,475.2,294.8,472.1,292.3z"/></g></g><g><g><path d="M473.2,293.9C473.2,293.9,473.2,293.9,473.2,293.9c-1.1-1.7-2.6-2.9-4.5-3.5c-1-0.3-2-0.4-3-0.1c-1,0-1.9,0.3-2.8,0.9     c-1.6,1-3,2.6-3.4,4.5c-0.4,1.9-0.4,4.1,0.8,5.8c0,0,0,0,0,0c1.1,1.6,2.6,2.9,4.5,3.4c1,0.3,2,0.4,3,0.1c1,0,1.9-0.3,2.8-0.9     c1.6-1,3-2.6,3.4-4.5C474.4,297.8,474.4,295.6,473.2,293.9L473.2,293.9z"/></g></g><g><path d="M213.8,205.3l-38,74.2H97.1c-22.9,0-43.6,9.3-58.6,24.3c-0.9,0.9-1.7,1.8-2.6,2.7L158.6,66.8l12.6,6.5    c12.8,6.6,23.6,15.6,32,26.2C226.4,128.6,231.9,169.9,213.8,205.3z" fill="#9B8579"/><g><path d="M207.3,201.5c-12.7,24.7-25.3,49.4-38,74.2c2.2-1.2,4.3-2.5,6.5-3.7c-14.9,0-29.9,0-44.8,0c-16.8,0-34.5-1.4-51.1,1.7     c-18.9,3.5-36.2,13.5-49.4,27.5c3.9,3,7.9,6.1,11.8,9.1C56.2,283.1,70.1,256,84,228.9c21.9-42.9,43.9-85.7,65.8-128.6     c5.1-9.9,10.2-19.8,15.2-29.8c-3.4,0.9-6.8,1.8-10.3,2.7c7.2,3.7,14.7,7.2,21.5,11.6c12.7,8.3,23.1,19.8,30.2,33.2     C220.3,143.9,220.5,175.3,207.3,201.5c-4.3,8.6,8.6,16.2,13,7.6c15.2-30.2,15.5-65.5,0.5-95.8c-7.5-15.1-18.7-28-32.2-38     c-8.2-6-17.3-10.3-26.3-15c-3.4-1.8-8.3-1.1-10.3,2.7c-13.9,27.1-27.7,54.2-41.6,81.3C88.5,187.1,66.6,230,44.7,272.9     c-5.1,9.9-10.2,19.8-15.2,29.8c-3.7,7.3,5.7,15.6,11.8,9.1c11-11.7,24.7-19.8,40.4-23.2c7.4-1.6,14.8-1.6,22.3-1.6     c18.4,0,36.8,0,55.1,0c5.6,0,11.2,0,16.8,0c2.5,0,5.3-1.4,6.5-3.7c12.7-24.7,25.3-49.4,38-74.2     C224.7,200.5,211.7,192.9,207.3,201.5z"/></g></g><g><path d="M466.8,297.6c-14.2-11.4-32.2-18.2-51.8-18.2H97.1c-22.9,0-43.6,9.3-58.6,24.3c-0.9,0.9-1.7,1.8-2.6,2.7    c-13.5,14.7-21.7,34.4-21.7,55.9c0,45.8,37.1,82.9,82.9,82.9h58.5l7.8-13c19.4-32.6,54.6-52.6,92.6-52.6c19,0,37.3,5,53.3,14.1    c16,9.1,29.6,22.2,39.3,38.6l7.8,13h58.5c22.9,0,43.6-9.3,58.6-24.3c15-15,24.3-35.7,24.3-58.6    C497.8,336.2,485.7,312.8,466.8,297.6z M75.9,374.9c-8.3,0-15-6.7-15-15c0-8.3,6.7-15,15-15c8.3,0,15,6.7,15,15    C90.8,368.2,84.2,374.9,75.9,374.9z" fill="#F7941E"/><g><path d="M75.9,367.4c-9.6-0.4-9.7-14.9,0-14.9C85.6,352.5,85.5,367,75.9,367.4c-9.6,0.4-9.7,15.4,0,15     c12.2-0.5,22.5-9.8,22.5-22.5c0-12.3-10.3-22.4-22.5-22.5c-12.2-0.1-22.5,10.3-22.5,22.5c0,12.6,10.3,21.9,22.5,22.5     C85.5,382.9,85.5,367.9,75.9,367.4z"/><path d="M472.1,292.3c-17.1-13.5-37.2-20.4-59-20.4c-7.4,0-14.8,0-22.2,0c-31.9,0-63.8,0-95.7,0c-38.5,0-77.1,0-115.6,0     c-25.3,0-50.6,0-75.9,0c-12.4,0-24.6,0.9-36.4,5.1c-29.5,10.6-52.5,36.2-58.6,67.2C3,372.4,10.9,401.6,30,423     c17.1,19.1,41.9,29.6,67.3,29.8c15.6,0.1,31.2,0,46.8,0c5.8,0,14.1,1.6,18-3.8c5-6.9,8.4-14.8,13.5-21.7     c16.8-22.8,43.9-37.8,72.2-39.9c33-2.5,65.3,11.3,86.3,36.9c6.2,7.5,10.3,16.2,15.6,24.3c3.6,5.5,10.9,4.2,16.6,4.2     c16,0,32,0.1,48,0c29.2-0.1,56.3-13.7,73.7-37.2c18.8-25.3,22.4-59.8,10.1-88.7C492.3,313.4,483.4,301.6,472.1,292.3     c-3.2-2.6-7.5-3-10.6,0c-2.7,2.6-3.1,8.1,0,10.6c15.9,13,26.8,31.6,28.6,52.3c1.8,21.2-5.1,42.6-19.7,58.3     c-14.4,15.5-34.3,24.1-55.4,24.3c-8.8,0.1-17.5,0-26.3,0c-10.8,0-21.5,0-32.3,0c2.2,1.2,4.3,2.5,6.5,3.7     c-6.9-11.6-13.6-23.2-22.9-33.1c-14.6-15.5-33.6-26.9-54.2-32.4c-38.7-10.3-81,0.7-109.8,28.4c-11.2,10.8-18.9,23.8-26.8,37     c2.2-1.2,4.3-2.5,6.5-3.7c-18.4,0-36.7,0-55.1,0c-28.4,0-54.6-12.9-69-38.1c-18.4-32.2-9.9-74.3,19.4-97     c13.2-10.2,29.5-15.6,46.2-15.7c2.3,0,4.6,0,6.9,0c35.4,0,70.7,0,106.1,0c47.3,0,94.7,0,142,0c16.2,0,32.3,0,48.5,0     c12.1,0,23.9-0.4,35.7,3.1c9.1,2.7,17.7,7.1,25.1,12.9c3.2,2.5,7.5,3.1,10.6,0C474.7,300.4,475.2,294.8,472.1,292.3z"/></g></g><g><path d="M90.8,360c0,8.3-6.7,15-15,15c-8.3,0-15-6.7-15-15c0-8.3,6.7-15,15-15C84.2,345,90.8,351.7,90.8,360z" fill="#1C75BC"/><g><path d="M83.3,360c-0.4,9.6-14.9,9.7-14.9,0C68.4,350.3,82.9,350.4,83.3,360c0.4,9.6,15.4,9.7,15,0c-0.5-12.2-9.9-22.5-22.5-22.5     c-12.3,0-22.4,10.3-22.5,22.5c-0.1,12.2,10.3,22.4,22.5,22.5c12.6,0,21.9-10.3,22.5-22.5C98.8,350.3,83.8,350.4,83.3,360z"/></g></g><g><path d="M356.4,445.2H155.6l7.8-13c19.4-32.6,54.6-52.6,92.6-52.6c19,0,37.3,5,53.3,14.1    c16,9.1,29.6,22.2,39.3,38.6L356.4,445.2z" fill="#FBB040"/><g><path d="M356.4,437.7c-22.7,0-45.3,0-68,0c-35.9,0-71.9,0-107.8,0c-8.3,0-16.6,0-24.9,0c2.2,3.8,4.3,7.5,6.5,11.3     c5.7-9.5,11-19.3,18.4-27.7c11-12.5,25-22.4,40.7-28.1c35.7-13,76.7-4.8,104.2,21.7c10.3,9.9,17.2,21.9,24.5,34     c4.9,8.3,17.9,0.8,13-7.6c-6.9-11.6-13.6-23.2-22.9-33.1c-14.6-15.5-33.6-26.9-54.2-32.4c-38.7-10.3-81,0.7-109.8,28.4     c-11.2,10.8-18.9,23.8-26.8,37c-2.9,4.9,0.8,11.3,6.5,11.3c22.7,0,45.3,0,68,0c35.9,0,71.9,0,107.8,0c8.3,0,16.6,0,24.9,0     C366,452.7,366,437.7,356.4,437.7z"/></g></g></g></svg>